<?xml version="1.0" standalone="no"?>
<!DOCTYPE svg PUBLIC "-//W3C//DTD SVG 20010904//EN"
 "http://www.w3.org/TR/2001/REC-SVG-20010904/DTD/svg10.dtd">
<svg version="1.0" xmlns="http://www.w3.org/2000/svg"
 width="1277.000000pt" height="1172.000000pt" viewBox="0 0 1277.000000 1172.000000"
 preserveAspectRatio="xMidYMid meet">

<g transform="translate(0.000000,1172.000000) scale(0.100000,-0.100000)"
fill="#000000" stroke="none">
<path d="M5665 9599 c-112 -7 -246 -24 -390 -49 -136 -23 -400 -91 -470 -120
-11 -5 -51 -19 -90 -31 -38 -12 -74 -26 -80 -29 -5 -4 -21 -11 -35 -15 -32 -9
-69 -26 -207 -92 -62 -29 -116 -53 -121 -53 -5 0 -15 -6 -21 -14 -7 -8 -29
-22 -49 -32 -86 -40 -433 -270 -467 -309 -5 -6 -17 -16 -26 -21 -75 -42 -451
-416 -543 -540 -17 -21 -33 -41 -36 -44 -38 -33 -280 -396 -280 -420 0 -5 -3
-10 -7 -12 -5 -1 -15 -17 -24 -34 -74 -142 -125 -247 -169 -349 -11 -27 -25
-59 -30 -70 -15 -32 -108 -315 -120 -365 -55 -223 -72 -309 -90 -460 -6 -47
-15 -118 -20 -158 -13 -94 -13 -540 0 -634 5 -40 14 -111 20 -158 16 -130 54
-331 79 -420 6 -19 20 -69 31 -110 12 -41 25 -84 30 -95 4 -11 25 -67 45 -125
21 -58 50 -133 66 -168 16 -35 29 -66 29 -69 0 -7 101 -206 130 -258 13 -22
28 -49 34 -60 28 -51 111 -180 118 -183 5 -2 8 -8 8 -13 0 -12 102 -154 187
-259 85 -106 292 -322 390 -408 30 -26 66 -58 81 -70 15 -13 38 -34 52 -46 14
-12 50 -39 80 -61 30 -22 60 -44 67 -50 30 -25 23 -20 223 -150 69 -45 374
-204 445 -232 17 -6 81 -32 144 -57 62 -25 136 -52 165 -60 28 -8 76 -22 106
-31 51 -15 195 -51 300 -75 60 -13 251 -39 370 -50 120 -11 497 -11 610 0 118
11 316 38 370 50 168 38 228 52 250 60 14 4 66 20 115 35 103 30 169 54 205
72 14 7 31 13 38 13 7 0 20 4 30 10 9 5 40 19 67 31 137 58 438 218 489 261 6
4 40 27 76 50 36 23 71 48 78 55 7 7 18 13 23 13 5 0 9 5 9 10 0 6 -17 -1 -37
-15 -21 -14 -46 -28 -55 -31 -10 -4 -18 -10 -18 -14 0 -5 -10 -12 -22 -16 -13
-4 -25 -9 -28 -13 -5 -5 -104 -59 -220 -118 -60 -30 -200 -93 -208 -93 -4 -1
-25 -9 -47 -20 -22 -11 -47 -19 -55 -20 -9 0 -20 -4 -25 -9 -12 -10 -208 -71
-425 -132 -103 -28 -390 -66 -617 -81 -141 -9 -222 -9 -355 1 -221 15 -494 52
-598 80 -19 6 -60 17 -90 25 -212 58 -324 95 -427 142 -17 8 -33 14 -36 14
-12 0 -275 125 -317 150 -8 5 -53 32 -100 59 -79 45 -172 104 -212 134 -9 6
-26 19 -38 27 -12 8 -37 26 -55 40 -17 14 -44 34 -60 45 -40 29 -150 122 -219
185 -159 146 -286 285 -435 481 -47 62 -171 249 -171 258 0 6 -4 11 -9 11 -5
0 -12 8 -15 18 -4 9 -19 40 -34 67 -83 148 -179 347 -197 405 -4 14 -11 30
-15 35 -14 18 -91 259 -130 405 -51 190 -83 411 -95 655 -4 77 -8 149 -10 160
-4 30 23 440 35 515 34 223 85 426 160 645 28 80 37 106 70 180 5 11 19 43 31
70 88 204 222 436 357 620 37 50 69 92 72 95 5 5 76 93 100 125 21 27 317 323
366 365 22 19 58 48 80 65 44 33 49 37 84 66 163 135 624 398 780 444 14 4 30
11 35 15 6 4 39 17 75 29 36 13 74 27 85 31 11 5 54 18 95 30 41 12 95 27 120
34 44 13 181 44 290 65 30 6 96 16 145 22 339 41 631 39 945 -6 153 -22 233
-38 439 -90 65 -16 230 -69 266 -86 11 -5 52 -20 90 -34 120 -44 376 -168 488
-237 43 -26 83 -48 88 -48 5 0 9 -3 9 -8 0 -4 17 -16 37 -27 20 -11 41 -25 47
-30 6 -6 36 -27 66 -47 30 -20 66 -45 80 -57 35 -29 40 -33 85 -66 49 -37 83
-66 149 -128 89 -84 90 -71 1 17 -131 132 -284 260 -467 392 -46 33 -207 134
-214 134 -2 0 -32 17 -66 38 -108 65 -289 149 -458 212 -63 23 -124 46 -135
50 -80 31 -336 97 -470 120 -297 52 -581 68 -870 49z"/>
<path d="M7635 8574 c-160 -38 -233 -64 -350 -124 -134 -70 -220 -125 -223
-143 -5 -25 13 -21 60 13 22 17 47 30 55 30 7 0 13 4 13 8 0 9 189 106 230
117 14 4 30 11 35 15 21 15 113 39 194 51 94 13 197 7 268 -17 65 -22 164 -94
202 -146 16 -24 34 -48 38 -54 15 -20 33 -49 40 -64 3 -8 31 -58 62 -110 89
-152 161 -241 251 -309 19 -14 37 -28 40 -31 14 -14 92 -60 150 -87 122 -58
219 -80 409 -94 288 -20 359 -68 437 -294 14 -38 18 -84 18 -190 0 -143 -10
-206 -56 -350 -21 -64 -93 -219 -112 -238 -7 -7 -23 -28 -36 -47 -13 -19 -67
-79 -120 -132 -123 -126 -116 -116 -139 -189 -26 -78 -26 -104 0 -201 29 -108
105 -228 197 -314 l33 -30 -18 -40 c-10 -21 -21 -40 -25 -42 -5 -2 -8 -9 -8
-15 0 -19 -78 -167 -171 -329 -22 -36 -39 -71 -39 -77 0 -6 -4 -11 -10 -11 -5
0 -10 -5 -10 -10 0 -6 -25 -53 -55 -105 -30 -53 -55 -98 -55 -100 0 -3 -17
-33 -38 -67 -49 -80 -87 -147 -128 -226 -18 -35 -37 -69 -42 -75 -9 -11 -64
-112 -100 -182 -9 -16 -18 -32 -21 -35 -3 -3 -14 -21 -25 -40 -27 -51 -64
-119 -90 -165 -13 -22 -40 -71 -61 -110 -20 -38 -52 -95 -71 -126 -19 -31 -34
-61 -34 -67 0 -6 -3 -12 -7 -14 -5 -1 -26 -39 -48 -82 -22 -44 -45 -84 -50
-90 -6 -6 -22 -36 -37 -66 -15 -30 -49 -93 -74 -140 -55 -100 -79 -154 -65
-146 6 4 23 29 38 56 15 28 31 50 36 50 4 0 7 4 7 9 0 4 33 61 73 125 39 64
83 136 97 160 14 23 72 120 130 216 128 212 157 261 167 280 4 8 13 21 20 28
7 7 13 20 13 28 0 8 4 14 9 14 5 0 12 8 15 18 7 19 19 40 140 240 47 78 86
145 86 148 0 3 13 24 28 47 48 71 372 624 372 635 0 6 3 12 8 14 4 2 30 37 58
78 28 41 62 91 75 110 l24 35 35 -17 c191 -93 346 -73 411 54 30 59 39 154 39
436 0 184 5 291 15 360 15 98 40 210 55 247 4 11 18 49 31 85 19 56 38 95 103
215 44 81 118 181 215 290 51 57 73 79 169 165 43 40 53 60 29 60 -45 0 -407
-401 -407 -450 0 -4 -4 -10 -8 -12 -10 -3 -19 -19 -79 -139 -37 -76 -83 -200
-112 -304 -24 -89 -33 -206 -41 -525 -9 -369 -14 -404 -70 -460 -61 -61 -183
-65 -295 -10 -11 5 -32 14 -48 20 l-27 10 20 37 c11 21 20 57 20 80 0 37 -3
43 -24 49 -34 8 -80 -19 -106 -63 l-22 -37 -47 49 c-55 59 -112 137 -134 186
-40 88 -47 115 -47 190 0 109 19 144 142 265 55 54 121 131 147 169 135 203
199 433 187 670 -10 202 -85 349 -211 414 -45 22 -174 45 -340 60 -123 11
-215 28 -229 42 -6 5 -17 9 -26 9 -28 0 -167 76 -243 133 -68 52 -133 116
-167 167 -8 12 -20 28 -25 34 -14 15 -44 65 -90 151 -150 278 -264 362 -500
370 -60 2 -119 2 -130 -1z m1828 -2884 c3 -10 0 -18 -5 -17 -6 1 -13 -4 -16
-12 -3 -9 0 -11 8 -6 9 5 11 4 6 -4 -4 -6 -12 -8 -18 -5 -7 5 -9 2 -5 -8 4
-12 1 -14 -14 -11 -27 7 -29 14 -14 51 16 36 50 44 58 12z m-60 -99 c3 -13 0
-18 -8 -15 -14 6 -28 -23 -18 -38 4 -7 1 -8 -7 -3 -10 6 -12 4 -7 -9 4 -10 3
-15 -3 -11 -11 7 -32 -29 -22 -40 4 -5 2 -5 -5 -1 -6 3 -16 -2 -22 -11 -26
-45 -7 15 24 77 35 70 58 87 68 51z m-140 -146 c-3 -9 -8 -14 -10 -11 -3 3 -2
9 2 15 9 16 15 13 8 -4z m-37 -83 c-17 -16 -18 -16 -5 5 7 12 15 20 18 17 3
-2 -3 -12 -13 -22z m-41 -77 c-15 -25 -29 -44 -32 -42 -2 3 8 25 24 50 15 25
29 44 31 42 2 -2 -8 -24 -23 -50z m-45 -75 c-6 -11 -13 -20 -16 -20 -2 0 0 9
6 20 6 11 13 20 16 20 2 0 0 -9 -6 -20z m-65 -118 c-19 -33 -35 -65 -35 -71 0
-6 -5 -11 -11 -11 -6 0 -9 4 -7 8 9 23 82 141 85 138 2 -2 -12 -31 -32 -64z
m-68 -120 c-10 -10 -17 -23 -17 -28 0 -5 -16 -35 -35 -68 -20 -32 -52 -88 -72
-125 -20 -36 -47 -84 -59 -106 -13 -22 -32 -56 -42 -75 -10 -19 -44 -78 -75
-132 -31 -53 -57 -101 -57 -107 0 -6 -4 -11 -9 -11 -5 0 -11 -8 -15 -17 -3
-10 -15 -34 -26 -53 -12 -19 -30 -52 -41 -73 -11 -22 -22 -37 -25 -34 -2 2 11
32 31 67 19 34 35 64 35 66 0 2 11 22 25 44 14 22 38 64 54 92 41 76 79 144
114 202 16 28 33 60 38 71 5 11 13 27 19 35 33 50 123 208 131 227 10 26 32
53 38 47 2 -2 -3 -12 -12 -22z m-493 -872 c-10 -16 -20 -27 -22 -25 -5 5 26
55 34 55 3 0 -3 -13 -12 -30z m-24 -49 c0 -5 -6 -14 -14 -20 -12 -10 -13 -8
-9 8 5 21 23 30 23 12z m-56 -95 c-14 -26 -28 -45 -30 -43 -2 2 8 25 22 51 14
26 28 45 30 43 2 -2 -8 -25 -22 -51z m-44 -76 c-6 -11 -13 -20 -16 -20 -2 0 0
9 6 20 6 11 13 20 16 20 2 0 0 -9 -6 -20z m-30 -60 c0 -5 -5 -10 -11 -10 -5 0
-7 5 -4 10 3 6 8 10 11 10 2 0 4 -4 4 -10z m-34 -48 c-17 -16 -18 -16 -5 5 7
12 15 20 18 17 3 -2 -3 -12 -13 -22z m-36 -76 c0 -3 -4 -8 -10 -11 -5 -3 -10
-1 -10 4 0 6 5 11 10 11 6 0 10 -2 10 -4z"/>
<path d="M4385 7742 c-6 -4 -16 -25 -22 -47 -7 -22 -19 -63 -27 -92 -18 -59
-19 -63 -8 -63 21 1 35 24 52 91 11 41 22 84 26 97 6 22 -2 28 -21 14z"/>
<path d="M4402 7663 c-12 -49 -22 -92 -22 -96 0 -17 38 14 43 35 18 76 28 115
33 131 4 12 0 17 -13 17 -15 0 -23 -17 -41 -87z"/>
<path d="M4470 7733 c0 -10 -6 -36 -14 -58 -7 -22 -16 -54 -19 -71 -5 -28 -4
-31 13 -27 12 3 21 18 25 41 4 21 10 42 15 47 4 6 10 27 14 48 6 33 5 37 -14
37 -12 0 -20 -7 -20 -17z"/>
<path d="M4510 7688 c-7 -35 -17 -67 -21 -72 -14 -16 -10 -26 10 -26 11 0 21
9 24 23 3 12 12 48 21 80 13 53 13 57 -4 57 -13 0 -20 -14 -30 -62z"/>
<path d="M4563 7711 c-7 -21 -15 -58 -19 -81 -15 -92 39 -12 61 91 5 24 3 29
-12 29 -12 0 -22 -12 -30 -39z"/>
<path d="M4625 7739 c-7 -10 -34 -115 -35 -132 0 -5 8 -7 17 -5 22 4 58 148
37 148 -7 0 -16 -5 -19 -11z"/>
<path d="M4661 7705 c-17 -56 -19 -107 -5 -112 8 -3 24 38 51 140 3 12 -1 17
-14 17 -13 0 -22 -13 -32 -45z"/>
<path d="M6115 7728 c-11 -37 -15 -127 -6 -133 5 -2 16 23 24 58 8 34 18 70
22 80 5 13 2 17 -13 17 -12 0 -23 -9 -27 -22z"/>
<path d="M6156 7698 c-45 -160 -64 -282 -46 -293 4 -3 11 12 14 33 6 34 27
110 61 226 19 61 19 86 1 86 -9 0 -20 -21 -30 -52z"/>
<path d="M6211 7718 c-13 -41 -57 -208 -82 -308 -18 -75 -27 -175 -18 -185 3
-3 18 46 33 108 15 61 31 121 36 132 5 11 12 36 15 55 7 34 22 87 51 178 18
54 18 52 -5 52 -13 0 -23 -11 -30 -32z"/>
<path d="M6261 7713 c-13 -53 -17 -70 -36 -133 -9 -30 -23 -79 -30 -108 -8
-28 -21 -76 -29 -105 -44 -159 -58 -227 -58 -267 0 -77 4 -77 23 -5 31 119 60
227 93 345 8 30 25 91 36 135 12 44 25 96 30 115 13 49 12 60 -5 60 -8 0 -18
-16 -24 -37z"/>
<path d="M6317 7733 c-20 -64 -41 -138 -57 -203 -10 -41 -33 -127 -50 -190
-85 -305 -101 -372 -104 -428 -3 -72 8 -74 23 -4 7 31 16 66 21 77 5 11 13 40
19 65 5 25 17 70 25 100 31 114 89 327 102 375 7 28 20 75 29 105 34 114 35
120 15 120 -10 0 -20 -8 -23 -17z"/>
<path d="M6366 7738 c-2 -7 -9 -33 -16 -58 -6 -25 -18 -69 -26 -97 -19 -71
-35 -132 -79 -293 -20 -74 -43 -160 -51 -190 -76 -279 -85 -315 -88 -370 -5
-82 6 -84 25 -5 10 39 25 97 34 130 9 33 22 83 30 110 7 28 20 77 30 110 9 33
32 119 51 190 19 72 42 154 50 183 80 294 82 302 59 302 -9 0 -17 -6 -19 -12z"/>
<path d="M6412 7718 c-6 -18 -18 -60 -26 -93 -8 -33 -29 -109 -46 -170 -17
-60 -46 -168 -65 -240 -19 -71 -40 -152 -48 -180 -8 -27 -29 -104 -47 -170
-17 -66 -41 -151 -51 -190 -21 -76 -34 -195 -20 -195 4 0 15 30 24 68 9 37 23
93 32 124 34 126 44 165 55 208 7 25 16 54 20 65 5 11 16 49 24 85 14 62 30
121 61 235 8 28 30 109 49 180 19 72 46 169 59 218 23 79 24 87 8 87 -10 0
-22 -13 -29 -32z"/>
<path d="M6465 7738 c-2 -7 -9 -31 -14 -53 -6 -22 -17 -65 -25 -95 -9 -30 -25
-91 -37 -135 -26 -99 -45 -169 -63 -237 -8 -29 -31 -111 -50 -183 -19 -71 -42
-157 -51 -190 -10 -33 -23 -82 -30 -110 -8 -27 -21 -75 -29 -105 -46 -168 -58
-220 -61 -272 -2 -32 0 -60 4 -63 5 -2 15 26 24 63 27 119 68 276 78 297 9 20
14 41 44 170 9 39 20 79 25 90 5 11 13 40 19 65 5 25 17 70 26 100 17 57 29
100 64 235 12 44 28 103 35 130 8 28 26 97 41 155 14 58 30 113 36 122 13 25
12 28 -11 28 -11 0 -23 -6 -25 -12z"/>
<path d="M6505 7693 c-35 -118 -91 -327 -126 -468 -17 -66 -34 -129 -39 -140
-4 -11 -13 -40 -20 -65 -6 -25 -18 -70 -26 -100 -8 -30 -23 -89 -34 -130 -10
-41 -26 -100 -35 -130 -9 -30 -22 -77 -30 -105 -7 -27 -29 -111 -50 -185 -35
-127 -51 -245 -35 -255 4 -2 14 26 23 63 15 64 29 117 61 235 8 28 31 113 51
187 39 142 54 200 79 290 27 98 45 163 66 245 12 44 28 104 36 132 8 29 21 77
29 105 7 29 21 78 29 108 72 264 73 270 53 270 -10 0 -21 -20 -32 -57z"/>
<path d="M6536 7627 c-16 -67 -33 -129 -37 -137 -4 -8 -20 -62 -34 -120 -15
-58 -33 -127 -41 -155 -7 -27 -23 -86 -35 -130 -34 -130 -47 -177 -64 -235
-19 -64 -83 -307 -96 -365 -5 -22 -13 -49 -18 -60 -9 -19 -38 -128 -83 -310
-17 -69 -23 -130 -18 -185 1 -8 16 44 35 115 19 72 34 130 35 130 2 0 60 218
91 340 17 66 34 129 39 140 9 20 44 151 80 295 10 41 26 100 35 130 9 30 21
75 26 100 6 25 14 54 19 65 4 11 20 70 35 130 15 61 31 119 35 130 4 11 18 61
30 110 12 50 26 98 31 107 13 25 12 28 -13 28 -21 0 -26 -11 -52 -123z"/>
<path d="M6600 7678 c-11 -40 -25 -89 -30 -108 -5 -19 -16 -60 -24 -90 -9 -30
-23 -82 -31 -115 -30 -113 -65 -243 -90 -330 -7 -27 -23 -84 -33 -125 -11 -41
-34 -127 -52 -190 -17 -63 -37 -137 -45 -165 -24 -92 -104 -388 -129 -480 -41
-149 -57 -225 -55 -275 0 -30 1 -98 1 -150 l-1 -95 19 70 c10 39 33 122 51
185 17 63 47 174 66 245 19 72 42 155 50 185 8 30 20 76 26 102 7 25 16 50 21
55 11 11 4 -22 -48 -210 -8 -28 -24 -88 -36 -132 -11 -44 -27 -104 -35 -132
-114 -408 -113 -406 -113 -583 l1 -155 18 70 c18 70 37 140 63 238 8 28 20 72
26 97 7 25 16 54 20 65 5 11 16 49 24 85 14 62 29 120 62 240 9 30 22 78 29
105 8 28 24 86 35 130 12 44 28 105 36 135 9 30 22 80 31 110 8 30 21 78 28
105 8 28 24 86 36 130 11 44 27 105 36 135 8 30 19 75 25 100 6 25 14 50 18
55 4 6 11 28 14 50 4 22 14 63 22 90 9 28 20 66 25 85 6 19 9 62 7 95 l-3 60
-17 -65 c-9 -36 -24 -90 -33 -120 -9 -30 -23 -77 -30 -105 -30 -113 -85 -317
-114 -425 -18 -63 -38 -137 -45 -165 -15 -57 -80 -294 -101 -370 -29 -108 -47
-173 -65 -245 -10 -41 -26 -100 -35 -130 -16 -57 -66 -239 -89 -325 -8 -27
-14 -43 -15 -35 -1 20 24 118 109 425 5 17 23 86 40 155 17 69 35 134 40 145
4 11 13 40 20 65 6 25 18 70 26 100 8 30 22 84 30 120 9 36 19 74 24 85 5 11
13 40 20 65 13 53 30 116 60 225 25 91 37 137 75 285 14 58 31 114 36 125 5
11 13 38 18 60 5 22 17 67 27 100 17 60 32 216 19 203 -3 -3 -12 -30 -20 -60
-15 -59 -38 -146 -60 -225 -8 -29 -22 -77 -30 -105 -8 -29 -24 -89 -35 -133
-12 -44 -28 -105 -36 -135 -9 -30 -22 -77 -29 -105 -8 -27 -21 -75 -29 -105
-8 -30 -24 -89 -35 -130 -11 -41 -25 -88 -30 -105 -9 -27 -10 -25 -5 15 4 25
10 52 14 60 4 8 13 40 19 70 7 30 16 64 21 75 5 11 13 40 19 65 5 25 24 97 41
160 18 63 48 174 67 245 19 72 41 153 48 180 8 28 19 70 25 95 7 25 16 54 20
65 5 11 13 40 19 65 23 101 47 189 54 196 13 13 7 24 -12 24 -19 0 -32 -33
-67 -170 -9 -36 -20 -74 -24 -85 -9 -22 -26 -86 -41 -155 -6 -25 -14 -54 -19
-65 -4 -11 -20 -69 -35 -130 -15 -60 -29 -117 -32 -125 -11 -29 -120 -431
-145 -535 -5 -22 -13 -49 -18 -60 -8 -20 -14 -40 -50 -185 -22 -87 -74 -278
-83 -300 -3 -8 -16 -57 -28 -108 -13 -51 -25 -89 -27 -84 -3 11 22 112 73 297
37 137 45 166 65 240 11 44 28 105 36 135 8 30 22 80 30 110 22 77 39 142 64
235 12 44 27 103 35 130 8 28 21 77 30 110 9 33 22 83 30 110 7 28 23 86 35
130 11 44 27 103 35 130 21 76 43 159 59 218 8 28 19 68 25 87 15 47 14 70 -3
70 -9 0 -22 -27 -36 -72z"/>
<path d="M6701 7683 c-25 -81 -26 -83 -3 -83 13 0 22 16 35 58 21 70 21 92 3
92 -9 0 -22 -26 -35 -67z"/>
<path d="M6754 7693 c-8 -32 -18 -66 -20 -75 -4 -13 0 -18 15 -18 15 0 22 10
29 43 6 23 15 57 20 75 9 28 8 32 -8 32 -15 0 -23 -13 -36 -57z"/>
<path d="M6816 7738 c-2 -7 -9 -31 -14 -53 -6 -22 -14 -50 -17 -62 -6 -18 -3
-23 12 -23 15 0 22 14 36 64 9 35 17 69 17 75 0 15 -30 14 -34 -1z"/>
<path d="M6862 7723 c-6 -16 -13 -41 -17 -58 -3 -16 -8 -38 -11 -47 -4 -13 0
-18 14 -18 14 0 21 11 29 43 6 23 16 57 21 75 9 28 8 32 -7 32 -11 0 -23 -11
-29 -27z"/>
<path d="M6915 7738 c-2 -7 -9 -31 -14 -53 -5 -22 -13 -50 -16 -62 -6 -19 -3
-23 14 -23 14 0 22 8 27 28 3 15 10 43 15 62 12 49 11 60 -6 60 -9 0 -18 -6
-20 -12z"/>
<path d="M6962 7723 c-6 -16 -14 -41 -18 -58 -3 -16 -8 -38 -11 -47 -3 -13 1
-18 15 -18 14 0 22 12 31 48 23 89 24 102 8 102 -8 0 -19 -12 -25 -27z"/>
<path d="M7002 7698 c-6 -29 -14 -63 -18 -75 -5 -19 -2 -23 14 -23 17 0 23 10
33 58 7 31 16 65 21 75 7 14 4 17 -15 17 -20 0 -25 -8 -35 -52z"/>
<path d="M7066 7738 c-2 -7 -11 -37 -20 -67 -20 -67 -20 -71 2 -71 14 0 22 13
31 48 24 91 25 102 7 102 -9 0 -18 -6 -20 -12z"/>
<path d="M7102 7698 c-7 -29 -15 -64 -19 -76 -5 -20 -2 -23 13 -20 13 2 23 18
32 48 7 25 17 57 21 73 8 24 7 27 -13 27 -18 0 -24 -9 -34 -52z"/>
<path d="M7165 7738 c-11 -33 -35 -123 -35 -130 0 -4 8 -8 18 -8 13 0 22 16
35 58 9 32 17 66 17 75 0 20 -29 23 -35 5z"/>
<path d="M7202 7690 c-7 -34 -15 -67 -19 -75 -6 -17 22 -21 32 -4 7 10 34 115
35 132 0 4 -8 7 -18 7 -14 0 -21 -14 -30 -60z"/>
<path d="M7252 7698 c-7 -29 -15 -63 -18 -75 -5 -19 -2 -23 15 -23 13 0 21 6
21 18 0 9 5 24 11 32 8 11 9 7 5 -17 -5 -27 -2 -33 13 -33 14 0 21 13 30 58 7
31 15 65 17 75 4 11 0 17 -10 17 -9 0 -16 -1 -16 -2 0 -2 -7 -21 -15 -43 l-15
-40 6 43 c5 36 3 42 -13 42 -14 0 -21 -12 -31 -52z"/>
<path d="M7360 7729 c0 -11 -4 -28 -9 -37 -4 -9 -11 -34 -15 -55 -6 -33 -5
-38 10 -35 10 2 24 24 35 58 24 73 24 90 -1 90 -14 0 -20 -7 -20 -21z"/>
<path d="M7412 7723 c-12 -30 -32 -103 -32 -115 0 -5 9 -8 19 -8 16 0 21 9 27
45 3 25 10 48 15 51 5 3 9 16 9 30 0 33 -25 31 -38 -3z"/>
<path d="M7452 7698 c-7 -29 -15 -64 -19 -76 -5 -20 -2 -23 13 -20 19 3 35 40
48 111 6 32 4 37 -12 37 -14 0 -21 -13 -30 -52z"/>
<path d="M7515 7739 c-7 -10 -34 -115 -35 -131 0 -5 8 -8 19 -8 14 0 21 12 30
53 7 28 14 62 18 75 4 16 1 22 -10 22 -9 0 -19 -5 -22 -11z"/>
<path d="M7551 7698 c-7 -29 -15 -64 -18 -76 -5 -20 -2 -23 13 -20 13 2 23 18
32 48 7 25 17 57 21 73 8 24 7 27 -14 27 -19 0 -24 -8 -34 -52z"/>
<path d="M7615 7738 c-11 -33 -35 -123 -35 -130 0 -4 8 -8 19 -8 14 0 21 12
30 53 7 28 14 62 18 75 4 16 1 22 -11 22 -9 0 -18 -6 -21 -12z"/>
<path d="M7647 7683 c-21 -82 -21 -83 -3 -83 20 0 26 11 42 78 17 73 17 72 -4
72 -13 0 -22 -16 -35 -67z"/>
<path d="M7710 7729 c0 -11 -4 -28 -9 -37 -4 -9 -11 -34 -15 -54 -6 -34 -5
-38 14 -38 14 0 20 7 20 21 0 11 4 28 9 37 4 9 11 34 15 55 6 33 5 37 -14 37
-14 0 -20 -7 -20 -21z"/>
<path d="M7751 7698 c-6 -29 -14 -63 -17 -75 -5 -16 -2 -23 8 -23 17 0 34 32
43 80 4 19 9 43 11 53 4 12 0 17 -14 17 -15 0 -21 -12 -31 -52z"/>
<path d="M7810 7729 c0 -11 -4 -28 -9 -37 -4 -9 -11 -34 -15 -55 -6 -33 -5
-38 9 -35 17 3 38 50 49 113 6 31 4 35 -14 35 -14 0 -20 -7 -20 -21z"/>
<path d="M7862 7723 c-12 -30 -32 -103 -32 -115 0 -5 8 -8 19 -8 15 0 21 12
30 61 7 34 15 67 18 75 3 8 -1 14 -10 14 -8 0 -19 -12 -25 -27z"/>
<path d="M7910 7727 c0 -13 -4 -27 -9 -32 -5 -6 -12 -29 -16 -52 -6 -36 -4
-43 9 -43 9 0 18 6 20 13 2 6 11 36 20 66 20 68 20 71 -4 71 -14 0 -20 -7 -20
-23z"/>
<path d="M7960 7731 c-5 -11 -10 -28 -10 -38 -1 -10 -7 -35 -14 -55 -13 -37
-13 -38 9 -38 19 0 24 8 34 53 7 28 14 62 18 75 7 28 -22 31 -37 3z"/>
<path d="M8001 7698 c-7 -29 -14 -63 -18 -75 -4 -16 -1 -23 10 -23 10 0 22 23
36 67 26 81 26 83 2 83 -14 0 -21 -12 -30 -52z"/>
<path d="M8060 7731 c-5 -11 -10 -28 -10 -38 -1 -10 -7 -35 -14 -55 -13 -37
-13 -38 9 -38 19 0 24 8 34 53 7 28 14 62 18 75 7 28 -22 31 -37 3z"/>
<path d="M8097 7683 c-21 -82 -21 -83 -3 -83 16 0 22 13 42 88 17 66 18 62 -4
62 -13 0 -22 -16 -35 -67z"/>
<path d="M8146 7683 c-20 -84 -20 -83 2 -83 13 0 21 13 30 53 6 28 14 62 18
75 5 17 2 22 -13 22 -17 0 -23 -12 -37 -67z"/>
<path d="M8200 7703 c-23 -94 -23 -103 -7 -103 15 0 30 31 42 85 3 17 8 38 11
48 4 12 0 17 -15 17 -15 0 -22 -11 -31 -47z"/>
<path d="M8260 7729 c0 -11 -4 -28 -9 -37 -4 -9 -11 -34 -15 -55 -6 -33 -5
-38 9 -35 17 3 38 50 49 113 6 31 4 35 -14 35 -14 0 -20 -7 -20 -21z"/>
<path d="M8300 7698 c-6 -29 -13 -63 -16 -75 -4 -16 -2 -23 9 -23 15 0 30 31
42 85 3 17 8 38 11 48 4 12 0 17 -14 17 -16 0 -23 -11 -32 -52z"/>
<path d="M4338 7733 c-11 -3 -23 -25 -33 -61 -9 -31 -23 -79 -31 -106 -17 -55
-15 -63 14 -45 12 7 24 32 30 58 6 25 17 72 25 104 9 31 14 56 14 56 -1 -1
-10 -3 -19 -6z"/>
<path d="M4714 7713 c-10 -46 -21 -87 -29 -105 -5 -14 -2 -18 14 -18 14 0 22
8 27 28 10 45 21 86 29 105 5 13 2 17 -14 17 -14 0 -22 -8 -27 -27z"/>
<path d="M4267 7723 c-3 -5 -10 -35 -17 -68 -7 -33 -16 -67 -20 -75 -4 -8 -11
-35 -15 -58 -7 -41 -6 -43 13 -33 12 6 23 28 30 58 11 53 36 138 47 166 5 13
2 17 -13 17 -12 0 -23 -3 -25 -7z"/>
<path d="M4770 7727 c0 -1 -9 -32 -19 -69 -18 -62 -18 -67 -3 -70 13 -3 21 11
34 57 21 75 22 85 3 85 -8 0 -15 -1 -15 -3z"/>
<path d="M4816 7721 c-3 -4 -8 -27 -12 -50 -4 -23 -11 -44 -15 -47 -15 -9 -10
-54 6 -54 8 0 15 1 15 3 0 1 7 20 15 42 l15 40 -3 -44 c-3 -63 18 -62 37 1 23
77 24 101 4 106 -13 3 -18 -3 -18 -22 0 -14 -5 -28 -12 -32 -8 -5 -9 2 -5 24
4 21 2 32 -8 36 -8 3 -17 2 -19 -3z"/>
<path d="M4216 7708 c-2 -7 -8 -29 -14 -48 -13 -42 -47 -173 -57 -215 -6 -29
-6 -29 14 -11 19 17 61 131 61 166 0 9 4 20 9 26 5 5 12 28 16 52 6 35 4 42
-9 42 -9 0 -18 -6 -20 -12z"/>
<path d="M4174 7702 c-6 -4 -19 -34 -28 -67 -10 -33 -24 -80 -31 -105 -8 -25
-19 -68 -25 -95 -6 -28 -13 -59 -17 -70 -4 -14 1 -12 19 10 14 17 33 57 42 90
36 122 44 151 50 180 4 17 9 38 12 48 6 18 -3 22 -22 9z"/>
<path d="M4118 7688 c-8 -7 -30 -69 -48 -138 -18 -69 -38 -147 -46 -175 -22
-81 -42 -158 -49 -185 -4 -14 11 11 33 55 22 44 43 94 47 110 4 17 10 39 15
50 4 11 20 70 35 130 14 61 31 118 36 127 19 36 7 49 -23 26z"/>
<path d="M4909 7698 c0 -2 -8 -33 -18 -71 -9 -37 -15 -69 -13 -72 21 -20 41
18 57 108 6 30 4 37 -9 37 -9 0 -16 -1 -17 -2z"/>
<path d="M8341 7663 c-15 -51 -14 -63 4 -63 11 0 15 12 15 50 0 28 -2 50 -5
50 -2 0 -9 -17 -14 -37z"/>
<path d="M4955 7679 c-13 -19 -35 -130 -29 -140 12 -20 27 -2 41 47 25 88 27
104 10 104 -9 0 -19 -5 -22 -11z"/>
<path d="M4064 7672 c-6 -4 -19 -38 -28 -77 -10 -38 -22 -79 -27 -90 -5 -11
-13 -40 -19 -65 -30 -126 -69 -272 -95 -360 -9 -30 -21 -75 -26 -100 -6 -25
-13 -52 -16 -60 -7 -18 -64 -230 -99 -365 -14 -55 -29 -109 -34 -120 -5 -11
-19 -60 -30 -109 -18 -73 -20 -90 -8 -97 14 -9 23 14 54 128 36 132 46 171 59
218 8 28 23 84 34 125 10 41 33 127 51 190 48 176 57 209 80 295 11 44 27 103
35 130 18 66 42 153 59 217 8 29 19 69 25 88 17 56 13 71 -15 52z"/>
<path d="M4982 7599 c-21 -72 -21 -89 1 -89 13 0 33 54 43 119 5 32 3 41 -8
41 -9 0 -22 -26 -36 -71z"/>
<path d="M3986 7608 c-8 -29 -22 -82 -31 -118 -9 -36 -23 -89 -31 -117 -8 -29
-21 -79 -30 -110 -8 -32 -21 -80 -29 -108 -7 -27 -23 -86 -34 -130 -12 -44
-28 -102 -36 -130 -7 -27 -20 -76 -29 -108 -9 -31 -22 -81 -30 -110 -8 -28
-25 -88 -36 -132 -12 -44 -28 -105 -37 -135 -32 -119 -35 -142 -24 -153 14
-14 21 -6 31 35 11 44 48 180 66 248 9 30 22 80 29 110 8 30 21 80 29 110 26
95 85 313 97 360 6 25 14 54 19 65 8 20 15 45 50 185 10 41 26 100 35 130 9
30 22 79 29 108 12 48 12 52 -5 52 -13 0 -22 -14 -33 -52z"/>
<path d="M5042 7633 c-22 -60 -33 -126 -23 -136 17 -17 27 1 44 75 12 54 12
69 2 78 -9 8 -15 3 -23 -17z"/>
<path d="M3953 7632 c-6 -4 -17 -30 -23 -57 -7 -28 -14 -57 -17 -65 -11 -28
-64 -225 -79 -289 -8 -35 -16 -66 -18 -70 -3 -4 -19 -61 -36 -126 -18 -66 -38
-142 -46 -170 -7 -27 -22 -84 -33 -125 -34 -128 -80 -295 -81 -295 -1 0 -9
-31 -19 -68 -15 -58 -16 -70 -4 -74 19 -8 24 -1 39 59 11 46 35 133 101 378
14 54 27 99 57 210 8 30 25 91 36 135 12 44 28 104 36 132 8 29 21 79 30 110
9 32 22 81 29 108 61 225 62 229 28 207z"/>
<path d="M5077 7578 c-29 -95 -30 -105 -11 -112 20 -8 18 -12 33 49 23 91 25
115 8 115 -9 0 -20 -20 -30 -52z"/>
<path d="M3889 7598 c-7 -13 -18 -45 -25 -73 -14 -56 -47 -181 -70 -265 -19
-70 -38 -140 -57 -210 -9 -30 -31 -116 -51 -190 -19 -74 -42 -160 -51 -190
-60 -204 -88 -331 -76 -343 6 -6 12 -9 14 -6 7 7 58 193 107 389 17 69 34 132
37 140 3 8 19 62 35 120 16 58 38 139 49 180 11 41 27 98 34 125 38 148 68
255 81 293 17 52 17 52 -1 52 -8 0 -20 -10 -26 -22z"/>
<path d="M5121 7563 c-6 -27 -16 -64 -21 -82 -5 -19 -7 -39 -4 -43 9 -14 34
-9 34 8 0 8 7 37 16 64 17 51 16 91 -2 97 -6 2 -16 -18 -23 -44z"/>
<path d="M3831 7568 c-5 -13 -16 -50 -25 -83 -9 -33 -21 -73 -26 -90 -5 -16
-19 -68 -30 -115 -12 -47 -24 -92 -27 -100 -3 -8 -21 -73 -40 -145 -19 -71
-40 -152 -48 -180 -33 -121 -45 -165 -65 -240 -11 -44 -28 -105 -36 -135 -20
-68 -22 -112 -8 -117 6 -2 14 6 17 19 16 63 58 220 107 398 18 63 39 142 46
175 8 33 18 67 23 75 5 9 12 36 16 60 4 24 11 51 16 60 7 13 26 85 75 280 8
30 18 69 23 85 23 75 23 75 6 75 -8 0 -19 -10 -24 -22z"/>
<path d="M5175 7562 c-4 -9 -15 -46 -25 -82 -14 -49 -16 -67 -7 -72 19 -12 26
-9 32 15 32 140 33 146 20 151 -7 2 -16 -3 -20 -12z"/>
<path d="M3784 7552 c-12 -8 -39 -92 -84 -267 -10 -38 -32 -122 -50 -185 -53
-193 -58 -213 -74 -280 -9 -36 -20 -81 -26 -100 -82 -283 -81 -280 -66 -302
12 -17 14 -15 25 24 6 24 18 68 27 98 8 30 29 109 45 175 17 66 34 129 39 140
5 11 14 40 20 65 6 25 18 68 25 95 8 28 24 86 35 130 12 44 28 103 35 130 20
71 45 164 56 210 5 22 12 48 15 58 6 18 -3 22 -22 9z"/>
<path d="M5206 7507 c-23 -75 -30 -133 -18 -141 15 -9 29 20 37 77 4 26 11 50
16 53 13 8 11 34 -5 49 -12 12 -16 6 -30 -38z"/>
<path d="M3727 7515 c-10 -7 -25 -37 -32 -67 -8 -29 -21 -80 -30 -113 -9 -33
-21 -78 -26 -100 -5 -22 -13 -49 -19 -60 -5 -11 -23 -76 -40 -145 -17 -69 -38
-149 -46 -177 -8 -29 -21 -78 -29 -108 -21 -77 -44 -164 -55 -205 -9 -36 -4
-80 10 -80 4 0 12 21 18 48 6 26 18 72 26 102 35 129 89 328 98 365 5 22 13
49 18 60 5 11 13 40 20 65 59 238 72 288 80 305 10 25 32 116 28 120 -2 2 -11
-3 -21 -10z"/>
<path d="M5247 7473 c-24 -72 -31 -128 -19 -149 12 -22 8 -30 42 90 20 69 20
80 8 93 -13 13 -17 9 -31 -34z"/>
<path d="M3663 7467 c-11 -12 -26 -42 -32 -67 -7 -25 -19 -70 -27 -100 -8 -30
-23 -89 -34 -130 -10 -41 -26 -100 -35 -130 -20 -68 -74 -271 -87 -325 -5 -22
-13 -49 -18 -60 -15 -35 -19 -67 -13 -96 8 -42 19 -35 31 19 6 26 17 72 26
102 30 110 45 166 56 210 7 25 16 54 20 65 5 11 16 49 24 85 8 36 21 90 29
120 28 102 67 245 79 283 14 46 8 54 -19 24z"/>
<path d="M5291 7449 c-6 -24 -16 -58 -21 -75 -17 -50 -12 -61 13 -34 13 14 29
47 36 74 10 42 10 51 -3 64 -13 13 -16 10 -25 -29z"/>
<path d="M5330 7419 c0 -24 23 -21 28 4 2 10 -3 17 -12 17 -10 0 -16 -9 -16
-21z"/>
<path d="M3596 7408 c-10 -11 -25 -46 -33 -77 -7 -31 -20 -80 -28 -108 -25
-89 -61 -221 -89 -323 -27 -103 -44 -155 -45 -140 0 14 15 78 44 185 8 28 28
100 44 160 39 143 57 205 67 230 7 18 6 18 -9 6 -21 -16 -63 -105 -72 -151
-11 -58 -17 -73 -24 -62 -3 5 -6 -9 -7 -33 -1 -52 -12 -85 -23 -67 -4 6 -7 -5
-7 -26 0 -20 -6 -69 -13 -108 -6 -39 -10 -102 -7 -140 3 -38 6 -85 7 -104 l1
-35 10 35 c6 19 14 44 18 55 5 11 13 38 18 60 6 22 24 92 42 155 43 157 53
196 90 340 17 69 35 133 41 142 18 35 4 38 -25 6z"/>
<path d="M6652 7130 c-6 -25 -16 -58 -21 -75 -5 -16 -13 -46 -16 -65 -4 -19
-11 -41 -16 -50 -4 -8 -20 -62 -34 -120 -38 -149 -64 -247 -80 -305 -8 -27
-22 -77 -30 -110 -9 -33 -23 -82 -30 -110 -8 -27 -24 -86 -36 -130 -11 -44
-27 -105 -36 -135 -8 -30 -19 -73 -24 -95 -5 -22 -13 -49 -19 -60 -5 -11 -23
-76 -40 -145 -30 -118 -37 -147 -74 -280 -68 -245 -87 -329 -88 -383 0 -27 2
-51 5 -53 2 -3 12 26 21 63 16 71 64 248 91 343 9 30 23 84 31 120 8 36 19 74
24 85 5 11 13 40 19 65 5 25 17 70 26 100 9 30 31 111 49 180 18 69 35 132 38
140 3 8 23 80 43 160 20 80 41 154 45 165 4 11 20 70 35 130 14 61 30 117 35
125 4 9 11 36 15 60 4 24 11 51 16 60 4 8 13 35 19 60 6 25 20 80 31 122 12
45 19 99 17 130 l-3 53 -13 -45z"/>
<path d="M3953 7107 c-11 -39 -18 -66 -57 -209 -69 -248 -172 -629 -183 -674
-3 -14 1 -23 11 -27 12 -5 19 6 31 45 8 29 15 58 15 65 0 7 4 21 9 31 5 9 22
67 36 127 15 61 31 119 35 130 5 11 13 40 19 65 16 72 32 134 41 155 19 44 66
322 57 332 -2 2 -9 -16 -14 -40z"/>
<path d="M3427 7093 c-4 -3 -7 -11 -7 -17 0 -6 5 -5 12 2 6 6 9 14 7 17 -3 3
-9 2 -12 -2z"/>
<path d="M6652 6940 c-8 -25 -21 -72 -29 -105 -8 -33 -19 -69 -23 -80 -5 -11
-13 -40 -20 -65 -6 -25 -17 -67 -25 -95 -7 -27 -23 -86 -34 -130 -12 -44 -28
-104 -36 -132 -37 -133 -56 -201 -103 -383 -17 -63 -40 -149 -52 -190 -26 -90
-44 -159 -70 -260 -10 -41 -26 -100 -35 -130 -9 -30 -23 -80 -31 -110 -8 -30
-21 -77 -28 -105 -43 -155 -57 -225 -54 -275 l3 -55 17 65 c19 74 68 257 93
345 25 89 55 204 66 255 6 25 14 54 19 65 5 11 14 38 19 60 6 22 17 65 25 95
8 30 25 91 36 135 11 44 27 104 35 133 8 28 22 78 31 110 8 31 21 80 29 107
21 74 55 204 66 250 6 22 17 58 25 80 l14 40 -6 -45 c-4 -24 -10 -51 -15 -60
-4 -8 -21 -69 -38 -135 -36 -141 -111 -423 -119 -445 -3 -8 -21 -73 -39 -145
-19 -71 -41 -152 -48 -180 -8 -27 -19 -70 -25 -95 -7 -25 -16 -54 -20 -65 -5
-11 -16 -49 -24 -85 -8 -36 -22 -90 -30 -120 -8 -30 -22 -80 -30 -110 -8 -30
-31 -113 -50 -185 -25 -90 -35 -150 -35 -195 l1 -65 19 70 c17 66 30 112 64
237 8 29 19 73 25 98 7 25 16 54 20 65 5 11 16 49 24 85 16 69 25 105 76 290
18 63 41 149 52 190 10 41 26 98 33 125 8 28 21 75 29 105 8 30 32 116 52 190
44 164 62 232 75 285 5 22 13 49 18 60 36 79 92 389 66 363 -7 -6 -13 -29 -48
-170 -12 -45 -27 -74 -27 -49 0 7 6 33 14 59 8 26 22 74 31 107 9 33 21 76 26
95 6 19 9 60 7 90 l-3 55 -13 -45z"/>
<path d="M3931 6845 c-13 -44 -29 -104 -37 -132 -8 -29 -20 -77 -28 -105 -8
-29 -24 -89 -36 -133 -11 -44 -28 -105 -36 -135 -41 -150 -42 -159 -27 -171
17 -15 17 -14 31 41 15 61 50 193 67 258 17 58 40 142 60 217 8 28 21 76 30
109 12 42 14 69 8 95 l-9 36 -23 -80z"/>
<path d="M3957 6763 c-8 -38 -30 -117 -47 -178 -17 -60 -37 -132 -45 -160 -17
-63 -53 -200 -64 -243 -7 -26 -6 -34 9 -42 15 -8 19 -3 28 38 6 26 18 72 26
102 26 95 44 164 56 210 6 25 16 54 20 65 5 11 14 45 20 75 7 30 19 76 27 102
15 46 12 98 -6 98 -4 0 -15 -30 -24 -67z"/>
<path d="M4006 6763 c-3 -10 -19 -72 -36 -138 -18 -66 -38 -144 -46 -172 -22
-82 -44 -163 -61 -223 -19 -68 -22 -112 -7 -117 7 -2 19 24 29 64 9 37 21 77
26 88 8 20 13 39 47 182 9 39 21 75 26 80 11 10 7 -8 -38 -177 -58 -213 -64
-242 -59 -257 13 -33 30 -5 51 85 23 96 31 127 72 272 12 41 28 100 36 130 8
30 20 72 26 93 10 32 9 40 -3 48 -17 10 -30 -16 -55 -116 -10 -38 -19 -64 -21
-58 -3 7 1 29 7 50 30 99 38 148 29 165 -12 22 -16 23 -23 1z"/>
<path d="M4084 6672 c-3 -15 -10 -38 -15 -52 -4 -14 -13 -43 -18 -65 -5 -22
-24 -89 -41 -150 -17 -60 -40 -144 -50 -185 -10 -41 -23 -92 -28 -113 -8 -31
-7 -39 7 -46 13 -8 18 -2 28 42 18 79 34 140 43 162 4 11 25 85 45 165 20 80
43 165 51 189 18 56 18 67 -1 75 -10 4 -17 -3 -21 -22z"/>
<path d="M4124 6642 c-3 -15 -10 -42 -16 -61 -6 -18 -17 -59 -25 -90 -7 -31
-20 -80 -28 -109 -8 -28 -21 -76 -29 -105 -8 -28 -23 -85 -35 -124 -12 -40
-21 -81 -21 -92 0 -28 27 -34 33 -8 3 12 13 49 22 82 30 108 43 159 65 240 12
44 28 105 36 135 40 144 40 146 19 154 -10 4 -17 -3 -21 -22z"/>
<path d="M4173 6627 c-4 -7 -19 -57 -34 -112 -15 -55 -41 -154 -59 -220 -66
-248 -70 -269 -60 -279 15 -15 26 2 38 54 10 42 36 142 67 255 8 28 27 98 43
158 16 59 32 110 35 114 12 11 8 31 -8 36 -8 4 -18 1 -22 -6z"/>
<path d="M4200 6548 c-21 -72 -42 -149 -60 -218 -5 -19 -18 -66 -29 -105 -11
-38 -25 -88 -30 -110 -5 -22 -14 -57 -19 -77 -5 -20 -7 -39 -4 -42 11 -11 32
-6 32 8 0 7 7 36 14 62 15 48 35 122 61 219 19 70 53 190 72 253 15 52 13 82
-6 82 -5 0 -19 -33 -31 -72z"/>
<path d="M6657 6595 c-20 -72 -37 -135 -57 -205 -28 -101 -53 -192 -86 -315
-26 -98 -48 -179 -88 -325 -8 -30 -25 -91 -36 -135 -21 -83 -40 -152 -65 -242
-18 -64 -32 -116 -80 -293 -20 -74 -42 -157 -50 -185 -77 -280 -85 -320 -83
-426 3 -144 22 -130 68 51 5 19 16 59 25 88 9 30 30 106 46 170 32 121 51 191
74 277 26 91 44 159 65 240 12 44 28 105 36 135 9 30 22 79 30 107 8 29 21 77
29 105 8 29 24 89 36 133 22 86 41 154 63 238 8 28 20 72 26 97 6 25 15 54 20
65 31 77 57 279 32 250 -4 -6 -18 -53 -31 -105 -12 -52 -27 -104 -31 -115 -8
-18 -38 -129 -75 -275 -7 -30 -30 -113 -50 -185 -58 -206 -71 -254 -130 -485
-14 -58 -31 -114 -35 -125 -5 -11 -23 -74 -39 -140 -35 -141 -111 -423 -119
-445 -3 -8 -11 -35 -18 -60 l-13 -45 6 45 c3 25 11 63 18 85 7 22 16 56 20 75
3 19 10 44 15 55 5 11 13 40 19 65 5 25 17 70 26 100 9 30 25 89 35 130 10 41
26 100 35 130 27 90 71 252 91 340 8 36 19 74 24 85 4 11 13 40 20 65 6 25 17
68 25 95 7 28 21 77 30 110 9 33 23 89 31 125 9 36 19 74 24 85 4 11 15 49 24
85 9 36 26 97 37 135 11 39 24 86 29 105 5 19 16 60 25 90 10 32 15 80 13 115
-3 52 -4 56 -11 30z"/>
<path d="M4235 6492 c-15 -59 -29 -114 -32 -122 -3 -8 -19 -62 -35 -120 -16
-58 -36 -130 -44 -160 -25 -88 -28 -116 -12 -123 10 -3 19 12 31 57 10 33 24
83 32 110 8 26 15 57 15 67 0 10 5 21 11 25 13 8 12 1 -16 -98 -36 -133 -44
-173 -36 -181 16 -16 29 1 36 45 4 23 11 49 16 58 4 8 13 35 19 60 6 25 20 79
30 120 10 41 26 100 35 130 9 30 22 78 30 105 7 28 16 60 20 71 8 27 -21 41
-33 16 -5 -9 -22 -66 -37 -127 -15 -60 -33 -128 -41 -150 l-14 -40 6 45 c3 25
10 50 14 55 4 6 13 39 20 75 7 36 16 72 20 80 4 8 11 34 14 56 6 31 4 43 -7
47 -11 4 -21 -20 -42 -101z"/>
<path d="M4337 6503 c-8 -27 -18 -64 -22 -83 -3 -19 -10 -44 -15 -55 -4 -11
-13 -38 -18 -60 -6 -22 -27 -101 -47 -175 -20 -74 -40 -150 -45 -168 -6 -26
-5 -35 6 -39 21 -8 21 -6 44 88 12 46 25 98 30 114 5 17 16 56 25 87 37 136
45 167 65 236 21 70 21 102 1 102 -5 0 -16 -21 -24 -47z"/>
<path d="M4371 6443 c-24 -92 -52 -194 -76 -277 -8 -26 -15 -55 -15 -62 0 -8
-4 -22 -10 -32 -5 -9 -16 -48 -24 -87 -11 -52 -12 -73 -4 -83 9 -11 15 -3 29
40 10 29 18 61 18 71 1 9 5 25 10 35 5 9 19 58 31 107 12 50 26 99 30 110 20
49 62 236 57 250 -13 31 -25 12 -46 -72z"/>
<path d="M4434 6488 c-4 -6 -13 -35 -20 -62 -17 -66 -51 -197 -69 -261 -7 -27
-23 -86 -35 -130 -38 -141 -40 -149 -27 -157 21 -13 24 -9 35 40 6 26 17 72
25 102 9 30 25 91 36 135 22 82 40 148 67 245 27 99 27 100 11 100 -9 0 -19
-5 -23 -12z"/>
<path d="M4465 6423 c-9 -32 -23 -80 -31 -108 -7 -27 -21 -77 -30 -110 -9 -33
-22 -82 -29 -110 -7 -27 -22 -86 -34 -129 -24 -91 -26 -116 -8 -116 12 0 37
72 52 150 4 19 11 40 15 45 4 6 11 28 14 50 4 22 14 63 22 90 9 28 19 66 24
85 5 19 19 68 31 108 20 70 20 102 0 102 -5 0 -17 -26 -26 -57z"/>
<path d="M4507 6398 c-9 -35 -23 -88 -31 -118 -108 -391 -117 -431 -104 -447
9 -12 14 -9 24 15 6 16 15 49 19 73 4 24 10 49 13 54 7 10 40 131 93 338 17
65 28 124 25 132 -11 30 -24 14 -39 -47z"/>
<path d="M4565 6422 c-4 -9 -13 -39 -20 -67 -18 -66 -53 -197 -71 -262 -68
-251 -74 -277 -61 -285 20 -13 23 -10 34 40 6 26 18 72 27 102 8 30 25 91 36
135 12 44 27 103 35 130 18 64 45 164 51 191 7 26 -21 40 -31 16z"/>
<path d="M4602 6378 c-6 -24 -27 -101 -47 -173 -20 -71 -42 -155 -50 -185 -7
-30 -23 -88 -34 -127 -25 -86 -26 -113 -6 -113 8 0 15 7 15 15 0 8 4 23 10 33
5 9 16 46 24 82 17 74 37 150 61 230 49 165 68 248 61 265 -10 27 -24 16 -34
-27z"/>
<path d="M4621 6268 c-18 -68 -39 -147 -47 -175 -8 -29 -20 -77 -28 -105 -53
-192 -60 -238 -37 -238 8 0 16 25 46 132 8 32 22 84 31 115 9 32 22 79 30 105
8 26 21 75 28 110 8 35 21 86 29 115 8 28 12 54 9 57 -18 19 -32 -7 -61 -116z"/>
<path d="M4690 6332 c-13 -37 -16 -47 -50 -182 -25 -98 -45 -172 -65 -240 -40
-135 -45 -164 -30 -179 12 -13 15 -13 19 0 16 51 76 276 76 286 0 7 6 32 14
55 7 24 24 81 36 128 12 47 26 93 31 102 13 26 11 55 -4 61 -9 3 -18 -8 -27
-31z"/>
<path d="M4732 6307 c-6 -23 -18 -68 -27 -99 -37 -136 -45 -167 -64 -238 -11
-41 -29 -111 -41 -155 -28 -101 -28 -109 -10 -112 11 -3 19 10 27 39 28 100
135 496 144 528 12 49 11 67 -5 73 -9 4 -17 -8 -24 -36z"/>
<path d="M4767 6258 c-10 -40 -22 -93 -28 -118 -6 -25 -14 -54 -19 -65 -4 -11
-13 -40 -19 -65 -6 -25 -18 -70 -27 -100 -52 -187 -60 -229 -46 -235 8 -3 16
-4 17 -3 2 3 36 124 61 216 8 28 20 76 28 105 81 300 84 315 73 326 -18 18
-22 13 -40 -61z"/>
<path d="M4816 6242 c-9 -31 -21 -70 -26 -87 -5 -16 -17 -59 -25 -95 -9 -36
-23 -87 -30 -115 -8 -27 -21 -75 -29 -105 -8 -30 -23 -85 -34 -121 -18 -63
-18 -67 -1 -77 15 -10 19 -5 29 41 6 29 15 61 20 72 5 11 23 76 40 145 33 128
50 194 77 290 25 94 26 97 10 103 -11 4 -19 -9 -31 -51z"/>
<path d="M4860 6228 c-17 -62 -34 -126 -73 -273 -19 -71 -47 -174 -61 -228
-14 -54 -24 -103 -21 -108 17 -27 29 0 70 156 9 33 22 83 30 110 32 120 47
173 56 210 6 22 17 59 25 83 7 23 14 54 14 67 0 41 -26 29 -40 -17z"/>
<path d="M4897 6182 c-8 -37 -23 -92 -32 -122 -9 -30 -29 -104 -45 -165 -16
-60 -40 -152 -55 -204 -22 -82 -24 -97 -11 -109 14 -15 23 6 55 133 6 22 17
65 25 95 8 30 20 75 26 100 7 25 16 54 20 65 5 11 14 45 20 75 7 30 18 74 26
98 18 54 18 88 0 95 -10 4 -18 -13 -29 -61z"/>
<path d="M6657 6225 c-20 -72 -37 -135 -57 -205 -32 -114 -44 -160 -81 -300
-11 -41 -27 -97 -34 -125 -8 -27 -21 -75 -29 -105 -8 -30 -22 -80 -30 -110 -8
-30 -24 -91 -36 -135 -35 -133 -50 -187 -65 -242 -8 -29 -22 -77 -30 -105 -8
-29 -24 -89 -35 -133 -11 -44 -27 -102 -35 -130 -8 -27 -21 -75 -29 -105 -8
-30 -19 -71 -25 -90 -15 -47 -14 -70 3 -70 17 0 33 49 86 260 25 98 45 172 65
240 24 80 44 156 61 230 8 36 19 73 24 82 6 10 10 24 10 32 0 7 7 36 15 62 18
61 73 266 121 449 20 77 40 148 45 157 5 10 9 24 9 32 0 7 7 36 14 62 8 27 22
74 31 104 10 32 15 80 13 115 -3 52 -4 56 -11 30z"/>
<path d="M4951 6192 c-6 -15 -15 -45 -20 -67 -12 -48 -46 -179 -67 -252 -8
-29 -20 -77 -28 -105 -32 -116 -48 -174 -53 -194 -2 -11 2 -26 10 -32 12 -11
17 -2 32 55 9 38 21 77 25 88 9 22 23 75 46 175 8 36 19 74 24 85 5 11 13 40
19 65 5 25 17 70 26 100 27 90 28 97 12 103 -10 4 -19 -3 -26 -21z"/>
<path d="M4984 6132 c-9 -31 -20 -70 -25 -87 -4 -16 -15 -57 -24 -90 -9 -33
-24 -94 -34 -135 -11 -41 -27 -100 -36 -130 -29 -98 -46 -174 -41 -187 8 -19
24 -16 29 5 3 9 15 55 27 102 21 80 34 128 65 245 22 80 55 196 70 249 19 60
19 72 1 79 -11 4 -19 -9 -32 -51z"/>
<path d="M5030 6118 c-17 -68 -28 -109 -44 -163 -16 -52 -56 -201 -86 -320
-10 -38 -24 -87 -30 -109 -11 -38 -5 -115 8 -101 4 4 15 39 24 78 19 81 39
156 63 237 9 30 22 78 29 105 8 28 28 104 45 169 18 65 30 125 27 132 -10 26
-25 14 -36 -28z"/>
<path d="M6660 6053 c-12 -49 -26 -97 -30 -108 -5 -11 -13 -40 -20 -65 -6 -25
-18 -69 -26 -97 -29 -107 -43 -160 -64 -238 -25 -98 -39 -148 -79 -295 -18
-63 -45 -169 -62 -235 -17 -66 -34 -129 -39 -140 -4 -11 -13 -40 -20 -65 -6
-25 -17 -67 -25 -95 -7 -27 -29 -108 -48 -180 -19 -71 -38 -138 -42 -148 -6
-16 -4 -18 16 -15 20 3 26 13 41 73 9 39 24 95 32 125 8 30 22 80 30 110 17
63 36 132 65 245 12 44 28 103 36 130 19 69 52 190 100 370 48 178 67 246 105
385 18 63 38 142 46 175 8 33 21 79 29 103 19 53 19 52 -4 52 -15 0 -22 -17
-41 -87z"/>
<path d="M6720 6098 c-5 -24 -15 -57 -20 -74 -14 -41 -13 -44 9 -44 15 0 22
13 34 63 8 34 18 70 22 80 5 13 2 17 -14 17 -16 0 -23 -10 -31 -42z"/>
<path d="M6766 6078 c-10 -35 -20 -71 -23 -80 -3 -13 1 -18 14 -18 14 0 23 15
36 58 20 69 22 102 4 102 -8 0 -21 -27 -31 -62z"/>
<path d="M6826 6128 c-3 -7 -9 -35 -16 -63 -6 -27 -13 -58 -16 -67 -4 -13 0
-18 15 -18 16 0 22 12 34 63 8 34 18 70 22 80 5 13 2 17 -14 17 -12 0 -23 -6
-25 -12z"/>
<path d="M6874 6113 c-3 -16 -12 -47 -20 -71 -18 -56 -18 -62 6 -62 14 0 20 7
20 23 0 13 4 27 10 33 5 5 13 31 16 57 6 39 4 47 -9 47 -10 0 -19 -11 -23 -27z"/>
<path d="M6916 6078 c-10 -35 -20 -71 -22 -80 -4 -13 0 -18 15 -18 16 0 22 12
34 63 8 34 18 70 22 80 5 13 2 17 -13 17 -15 0 -23 -13 -36 -62z"/>
<path d="M6966 6088 c-30 -107 -30 -108 -7 -108 15 0 21 6 21 23 0 13 4 27 10
33 5 5 13 31 16 57 6 39 4 47 -9 47 -10 0 -21 -18 -31 -52z"/>
<path d="M7016 6078 c-10 -35 -20 -71 -22 -80 -4 -13 0 -18 15 -18 15 0 22 10
30 43 5 23 14 59 19 80 9 32 8 37 -8 37 -13 0 -22 -16 -34 -62z"/>
<path d="M7076 6128 c-11 -39 -36 -139 -36 -144 0 -3 7 -4 16 -2 17 3 52 93
53 136 1 23 -27 32 -33 10z"/>
<path d="M7122 6103 c-6 -21 -13 -47 -16 -58 -2 -11 -7 -30 -11 -42 -5 -18 -2
-23 13 -23 19 0 35 42 49 128 8 47 -21 43 -35 -5z"/>
<path d="M7176 6128 c-5 -16 -25 -94 -33 -126 -5 -20 -2 -23 13 -20 20 3 37
43 49 116 6 35 4 42 -9 42 -9 0 -18 -6 -20 -12z"/>
<path d="M7217 6088 c-29 -98 -29 -108 -9 -108 15 0 22 12 31 53 24 104 24
107 9 107 -10 0 -21 -20 -31 -52z"/>
<path d="M7276 6128 c-5 -15 -25 -92 -33 -125 -4 -17 -1 -23 10 -23 21 0 28
13 43 74 6 28 15 59 19 69 5 13 2 17 -14 17 -12 0 -23 -6 -25 -12z"/>
<path d="M7324 6113 c-3 -16 -12 -47 -20 -71 -18 -55 -18 -62 4 -62 14 0 21
13 30 53 25 104 25 107 8 107 -9 0 -18 -12 -22 -27z"/>
<path d="M7376 6132 c-3 -5 -8 -28 -12 -51 -4 -23 -11 -44 -15 -47 -15 -9 -10
-54 5 -54 19 0 27 14 42 74 6 28 15 59 19 69 5 13 2 17 -13 17 -12 0 -23 -4
-26 -8z"/>
<path d="M7416 6088 c-30 -107 -30 -108 -7 -108 15 0 21 6 21 21 0 11 4 28 9
37 5 9 12 36 16 60 5 34 4 42 -8 42 -10 0 -21 -19 -31 -52z"/>
<path d="M7467 6088 c-28 -96 -29 -108 -10 -108 14 0 23 18 39 80 19 73 19 80
4 80 -12 0 -22 -16 -33 -52z"/>
<path d="M7526 6128 c-11 -36 -36 -135 -36 -141 0 -4 9 -7 20 -7 14 0 20 7 20
21 0 11 4 28 9 37 5 9 12 36 16 60 6 35 4 42 -9 42 -9 0 -18 -6 -20 -12z"/>
<path d="M7567 6088 c-31 -100 -31 -108 -10 -108 15 0 23 11 32 48 23 86 25
112 8 112 -9 0 -20 -20 -30 -52z"/>
<path d="M7626 6128 c-5 -16 -25 -94 -33 -126 -5 -20 -2 -23 13 -20 11 2 20
13 22 28 2 14 7 30 12 35 4 6 11 29 15 53 6 35 4 42 -9 42 -9 0 -18 -6 -20
-12z"/>
<path d="M7667 6088 c-31 -100 -31 -108 -9 -108 15 0 22 11 31 53 24 104 24
107 9 107 -10 0 -21 -20 -31 -52z"/>
<path d="M7726 6128 c-5 -15 -25 -92 -33 -125 -4 -17 -1 -23 10 -23 21 0 27
11 43 78 17 74 17 82 -1 82 -9 0 -17 -6 -19 -12z"/>
<path d="M7776 6125 c-8 -19 -35 -122 -36 -137 0 -5 9 -8 19 -8 16 0 21 10 26
53 4 29 5 66 3 82 -3 27 -4 28 -12 10z"/>
<path d="M5074 6103 c-9 -37 -77 -295 -108 -406 -70 -251 -77 -280 -70 -317 6
-34 6 -35 16 -10 5 14 23 75 39 135 17 61 37 134 45 163 48 178 84 312 98 370
8 29 17 56 21 60 9 9 2 -34 -19 -108 -8 -30 -25 -91 -37 -135 -11 -44 -27
-104 -35 -132 -8 -29 -21 -77 -29 -105 -7 -29 -21 -78 -30 -108 -40 -138 -54
-204 -49 -226 8 -32 21 -30 27 4 3 15 28 110 57 212 28 102 58 210 65 240 8
30 28 107 46 170 46 166 45 161 10 193 -17 15 -33 27 -36 27 -2 0 -8 -12 -11
-27z"/>
<path d="M5152 6018 c-6 -24 -18 -69 -26 -100 -9 -32 -22 -82 -30 -110 -8 -29
-24 -89 -36 -133 -12 -44 -28 -104 -36 -132 -16 -61 -38 -140 -58 -215 -8 -29
-19 -69 -25 -88 -6 -19 -11 -64 -10 -100 1 -53 3 -59 9 -35 5 17 16 55 25 85
9 30 22 78 30 105 46 172 89 332 110 411 13 50 34 124 45 165 33 113 42 158
36 174 -10 27 -24 16 -34 -27z"/>
<path d="M5187 5963 c-24 -105 -38 -156 -47 -178 -4 -11 -29 -101 -56 -200
-69 -262 -101 -383 -119 -445 -22 -73 -42 -149 -65 -240 -10 -41 -26 -100 -35
-130 -20 -71 -76 -278 -83 -307 -2 -13 0 -23 6 -23 18 0 35 30 49 88 8 31 20
80 28 107 8 28 23 86 35 130 23 87 40 149 64 238 9 31 23 83 32 115 8 31 22
80 29 107 8 28 24 86 36 130 11 44 27 105 36 135 38 140 45 168 54 205 5 22
14 49 19 60 5 11 16 52 25 90 9 39 21 87 26 109 10 38 5 76 -10 76 -4 0 -15
-30 -24 -67z"/>
<path d="M5240 5969 c-5 -13 -26 -87 -46 -164 -20 -77 -40 -153 -45 -170 -4
-16 -15 -55 -23 -85 -8 -30 -22 -80 -30 -110 -8 -30 -24 -91 -36 -135 -23 -87
-42 -156 -65 -237 -8 -29 -22 -80 -30 -113 -9 -33 -23 -82 -30 -110 -8 -27
-23 -84 -34 -125 -22 -85 -45 -168 -60 -220 -6 -19 -11 -36 -11 -37 0 -2 8 -3
18 -3 20 0 34 31 56 130 16 70 35 143 60 230 9 30 28 100 42 155 14 55 29 109
34 120 4 11 20 70 35 130 15 61 31 119 35 130 5 11 13 40 19 65 5 25 17 70 26
100 9 30 25 89 35 130 35 138 72 272 84 301 4 9 0 21 -8 28 -13 11 -17 9 -26
-10z"/>
<path d="M5261 5868 c-35 -129 -51 -187 -71 -268 -11 -41 -33 -124 -50 -185
-33 -117 -46 -163 -79 -290 -32 -120 -83 -307 -101 -370 -38 -130 -71 -267
-67 -272 13 -12 35 14 45 50 11 46 35 133 57 212 15 51 28 102 64 235 36 136
79 294 96 355 9 33 26 94 36 135 11 41 26 98 34 125 7 28 21 76 29 108 9 31
23 83 32 115 9 31 17 72 18 91 2 63 -20 42 -43 -41z"/>
<path d="M5312 5867 c-11 -45 -22 -86 -72 -267 -18 -63 -41 -149 -52 -190 -10
-41 -26 -97 -33 -125 -8 -27 -21 -75 -29 -105 -8 -30 -22 -80 -30 -110 -9 -30
-24 -89 -35 -130 -30 -112 -77 -286 -100 -365 -11 -38 -18 -71 -16 -73 2 -2
12 1 23 7 13 7 23 26 27 53 4 23 11 49 16 58 4 8 13 35 18 60 13 58 46 180 54
200 3 8 10 35 16 60 9 42 31 126 51 195 8 27 41 150 76 280 30 113 71 261 77
275 3 8 11 40 17 70 7 30 17 69 23 87 8 25 7 34 -6 47 -14 14 -16 12 -25 -27z"/>
<path d="M6652 5840 c-7 -25 -19 -67 -27 -94 -8 -26 -15 -56 -15 -65 0 -10 -3
-21 -7 -25 -5 -4 -13 -29 -19 -54 -6 -26 -28 -110 -49 -187 -21 -77 -51 -189
-67 -250 -16 -60 -36 -132 -44 -160 -7 -27 -23 -86 -35 -130 -11 -44 -27 -102
-34 -130 -8 -27 -19 -70 -25 -95 -7 -25 -14 -52 -17 -60 -13 -34 -52 -186 -53
-202 0 -29 29 -21 36 10 3 15 10 38 14 52 12 33 25 80 65 235 19 72 48 182 66
245 37 135 51 187 80 295 11 44 27 103 34 130 8 28 19 70 25 95 7 25 15 54 20
65 5 11 13 40 19 65 7 25 21 80 32 122 12 45 19 99 17 130 l-3 53 -13 -45z"/>
<path d="M5354 5833 c-3 -10 -10 -29 -15 -43 -4 -14 -15 -52 -23 -85 -8 -33
-22 -86 -30 -117 -17 -61 -38 -140 -61 -223 -26 -96 -86 -320 -101 -372 -18
-69 -37 -139 -63 -238 -12 -44 -29 -105 -37 -135 -30 -110 -30 -105 -3 -87 16
12 28 38 41 89 20 78 28 110 77 288 18 63 45 165 61 225 15 61 38 144 50 185
26 90 44 159 70 260 10 41 26 100 35 130 23 75 29 126 16 134 -6 4 -14 -1 -17
-11z"/>
<path d="M5382 5758 c-6 -24 -18 -68 -27 -98 -9 -30 -25 -89 -35 -130 -10 -41
-33 -124 -50 -185 -17 -60 -46 -168 -65 -240 -47 -179 -112 -420 -130 -479
-20 -65 -20 -79 3 -67 9 5 23 31 30 58 8 26 20 71 27 98 8 28 23 82 34 120 11
39 25 88 30 110 10 41 30 114 55 208 8 28 31 113 51 187 20 74 43 158 51 185
17 63 43 161 53 200 7 28 -1 75 -13 75 -2 0 -9 -19 -14 -42z"/>
<path d="M5412 5688 c-6 -24 -18 -69 -27 -100 -37 -136 -45 -167 -65 -243 -12
-44 -28 -102 -35 -130 -28 -98 -127 -465 -155 -575 -13 -47 -12 -50 6 -43 19
7 31 36 55 133 22 90 42 165 64 240 21 69 41 144 65 240 10 41 26 100 35 130
9 30 22 78 29 105 8 28 25 92 39 144 18 67 23 101 16 118 -5 13 -10 23 -12 23
-2 0 -9 -19 -15 -42z"/>
<path d="M6661 5690 c-4 -9 -88 -317 -140 -515 -12 -44 -28 -102 -36 -130 -14
-53 -34 -125 -59 -215 -8 -30 -24 -89 -34 -130 -35 -133 -79 -295 -87 -313 -7
-16 -4 -18 16 -15 19 2 26 12 36 53 12 54 45 177 68 263 39 141 47 170 56 212
5 25 14 52 18 60 5 9 12 31 15 50 4 19 14 59 22 87 8 29 21 77 29 105 8 29 23
87 35 128 12 41 28 100 36 130 8 30 20 71 25 90 8 28 9 158 0 140z"/>
<path d="M5436 5589 c-47 -166 -91 -328 -131 -484 -19 -71 -41 -155 -50 -185
-35 -119 -76 -282 -72 -287 1 -1 9 4 18 11 16 11 25 35 54 141 7 28 20 75 29
105 8 30 24 91 36 135 11 44 27 104 35 133 31 111 47 169 60 217 42 153 54
212 47 244 -7 33 -8 33 -26 -30z"/>
<path d="M5461 5504 c-6 -22 -15 -57 -20 -79 -10 -40 -30 -116 -56 -210 -20
-70 -84 -310 -100 -370 -7 -27 -20 -75 -29 -105 -8 -30 -14 -55 -12 -57 1 -2
12 8 25 20 13 14 31 61 46 118 29 112 84 314 85 314 1 0 16 57 34 127 18 70
36 131 41 135 4 5 5 -3 2 -17 -6 -27 -43 -166 -92 -345 -40 -148 -47 -173 -56
-210 -5 -22 -12 -49 -15 -60 -3 -11 9 1 26 27 17 26 38 72 46 102 7 31 20 80
28 109 19 71 55 203 67 251 9 38 6 273 -5 283 -2 3 -9 -12 -15 -33z"/>
<path d="M6652 5470 c-7 -25 -19 -70 -28 -100 -8 -30 -19 -68 -23 -85 -48
-164 -111 -399 -157 -580 -14 -55 -29 -109 -34 -120 -11 -24 -50 -184 -50
-202 0 -31 29 -10 40 30 15 55 37 133 56 204 9 32 22 81 29 108 8 28 24 86 36
130 11 44 27 103 34 130 8 28 20 75 28 105 25 90 67 243 78 280 6 19 9 60 7
90 l-3 55 -13 -45z"/>
<path d="M6657 5305 c-5 -16 -18 -61 -28 -100 -11 -38 -26 -92 -34 -120 -7
-27 -20 -75 -28 -105 -17 -60 -19 -70 -48 -180 -11 -41 -27 -99 -35 -127 -22
-82 -41 -153 -57 -213 -8 -30 -18 -63 -22 -72 -5 -14 -2 -18 13 -18 16 0 24
10 31 38 6 20 11 44 11 53 0 9 3 19 7 23 5 4 13 29 19 54 7 26 21 81 32 122
11 41 32 122 47 180 14 58 30 112 34 120 5 9 12 31 16 50 4 19 18 75 31 124
17 59 24 107 22 145 -3 49 -4 52 -11 26z"/>
<path d="M5460 5129 c-6 -24 -20 -76 -31 -115 -10 -38 -19 -74 -19 -80 0 -18
26 42 37 86 7 25 17 67 24 93 6 26 9 50 6 53 -3 3 -11 -14 -17 -37z"/>
<path d="M6652 5100 c-37 -132 -44 -157 -53 -180 -4 -14 -13 -43 -18 -65 -5
-22 -16 -65 -24 -95 -9 -30 -25 -91 -36 -135 -12 -44 -29 -105 -37 -135 -25
-90 -28 -120 -12 -120 14 0 48 83 48 115 0 7 7 35 15 61 15 51 46 162 70 252
35 127 47 169 56 202 6 19 9 60 7 90 l-3 55 -13 -45z"/>
<path d="M4921 5054 c0 -11 3 -14 6 -6 3 7 2 16 -1 19 -3 4 -6 -2 -5 -13z"/>
<path d="M3522 4963 c-6 -15 -14 -41 -18 -58 -3 -16 -13 -51 -21 -77 -14 -45
-12 -98 5 -98 4 0 16 33 26 73 10 39 25 92 33 116 13 38 13 45 0 58 -12 12
-15 11 -25 -14z"/>
<path d="M6652 4920 c-7 -25 -16 -61 -22 -80 -5 -19 -16 -57 -24 -85 -34 -115
-96 -353 -96 -372 0 -7 7 -13 15 -13 8 0 18 17 25 43 13 52 36 136 56 201 7
26 14 57 14 67 0 10 4 20 9 23 5 3 12 27 16 53 4 27 11 56 16 66 6 9 9 45 7
80 l-3 62 -13 -45z"/>
<path d="M3473 4927 c-26 -29 -45 -104 -32 -129 14 -26 17 -23 29 25 6 23 15
59 22 80 14 46 8 54 -19 24z"/>
<path d="M3541 4855 c-38 -133 -39 -143 -28 -154 18 -18 27 -13 27 13 0 14 4
27 8 30 16 10 36 144 25 168 -8 19 -13 12 -32 -57z"/>
<path d="M4850 4837 c-19 -34 -40 -82 -47 -107 -6 -25 -19 -74 -28 -110 -9
-36 -22 -84 -30 -108 -19 -54 -19 -82 0 -82 8 0 19 17 25 43 6 23 16 56 21 72
5 17 27 95 48 175 21 80 42 153 46 163 14 35 -1 15 -35 -46z"/>
<path d="M3417 4872 c-9 -10 -13 -23 -8 -30 5 -9 11 -5 20 14 15 33 10 40 -12
16z"/>
<path d="M3575 4795 c-10 -44 -22 -88 -27 -99 -7 -13 -6 -23 6 -34 17 -18 14
-23 39 68 26 92 27 106 13 125 -12 17 -15 11 -31 -60z"/>
<path d="M3622 4783 c-6 -21 -18 -62 -27 -91 -13 -43 -13 -57 -4 -69 11 -12
14 -11 25 9 8 13 13 30 14 39 0 9 8 40 17 68 14 46 15 54 1 67 -13 13 -16 11
-26 -23z"/>
<path d="M6647 4720 c-10 -36 -25 -90 -33 -120 -8 -30 -22 -80 -30 -110 -34
-125 -34 -120 -13 -120 12 0 19 7 19 19 0 11 4 22 9 25 5 3 12 23 15 43 4 21
11 52 16 68 35 114 41 146 38 200 l-3 60 -18 -65z"/>
<path d="M3650 4700 c-12 -38 -20 -79 -18 -91 5 -38 25 -32 33 8 3 21 13 57
20 80 14 41 12 73 -5 73 -5 0 -18 -31 -30 -70z"/>
<path d="M4763 4722 c-11 -15 -25 -48 -31 -72 -6 -25 -22 -85 -36 -135 -14
-49 -26 -93 -26 -97 0 -16 39 6 43 25 31 123 76 287 81 296 15 24 -11 9 -31
-17z"/>
<path d="M3706 4719 c-40 -126 -43 -158 -19 -166 6 -2 14 13 18 39 4 24 11 48
15 53 15 20 17 65 4 76 -10 8 -15 8 -18 -2z"/>
<path d="M3732 4648 c-7 -29 -15 -63 -19 -76 -3 -12 0 -29 7 -38 12 -13 15
-10 26 23 25 73 32 121 21 132 -18 18 -23 13 -35 -41z"/>
<path d="M4703 4673 c-12 -10 -26 -38 -33 -63 -30 -117 -48 -195 -45 -199 11
-10 33 11 39 36 8 35 43 156 57 201 13 41 8 48 -18 25z"/>
<path d="M3777 4617 c-27 -90 -28 -104 -12 -111 9 -3 18 0 20 7 12 38 35 126
35 135 0 5 -6 12 -14 15 -10 4 -18 -10 -29 -46z"/>
<path d="M4641 4631 c-11 -11 -25 -39 -31 -63 -6 -24 -17 -65 -25 -92 -21 -68
-20 -89 3 -77 12 6 25 40 41 103 12 51 27 104 32 117 13 32 5 37 -20 12z"/>
<path d="M3817 4583 c-23 -82 -24 -97 -6 -101 11 -2 19 11 28 45 22 86 25 113
9 113 -9 0 -21 -22 -31 -57z"/>
<path d="M3857 4553 c-21 -82 -21 -93 -3 -93 12 0 34 57 49 127 4 18 -8 33
-27 33 -1 0 -9 -30 -19 -67z"/>
<path d="M4565 4578 c-7 -18 -16 -51 -20 -73 -4 -22 -11 -44 -15 -50 -4 -5
-10 -22 -12 -37 -4 -22 -1 -28 12 -28 17 0 18 3 60 144 24 82 24 76 4 76 -8 0
-21 -15 -29 -32z"/>
<path d="M3915 4577 c-4 -12 -13 -45 -20 -74 -11 -45 -11 -52 2 -58 9 -3 17
-4 18 -3 3 5 26 90 32 119 6 34 -22 48 -32 16z"/>
<path d="M6652 4550 c-7 -25 -19 -67 -27 -94 -19 -61 -19 -86 -1 -86 21 0 48
101 44 168 l-3 57 -13 -45z"/>
<path d="M3956 4543 c-4 -21 -12 -53 -19 -71 -9 -27 -9 -35 3 -42 12 -7 18 2
31 42 29 88 31 108 10 108 -14 0 -21 -10 -25 -37z"/>
<path d="M4505 4538 c-4 -23 -11 -49 -16 -58 -4 -8 -12 -34 -17 -57 -8 -34 -7
-43 3 -43 19 0 23 9 46 93 11 39 22 80 25 90 4 12 0 17 -14 17 -16 0 -22 -9
-27 -42z"/>
<path d="M4006 4552 c-2 -4 -7 -25 -11 -47 -4 -22 -12 -48 -17 -59 -7 -13 -6
-21 3 -27 20 -12 32 5 45 59 6 26 15 55 19 65 5 13 2 17 -13 17 -12 0 -23 -3
-26 -8z"/>
<path d="M4456 4552 c-2 -4 -7 -25 -11 -47 -4 -22 -11 -47 -15 -55 -4 -8 -10
-27 -14 -42 -5 -23 -3 -28 12 -28 13 0 22 15 35 63 9 34 21 74 26 90 8 23 6
27 -9 27 -10 0 -21 -3 -24 -8z"/>
<path d="M4057 4543 c-4 -3 -7 -16 -7 -28 0 -11 -4 -25 -9 -30 -13 -15 -22
-75 -11 -75 6 0 13 -1 16 -2 7 -3 29 59 38 107 5 26 3 35 -7 35 -7 0 -17 -3
-20 -7z"/>
<path d="M4404 4538 c-4 -6 -15 -45 -24 -85 -17 -71 -17 -73 1 -73 12 0 21 10
25 28 3 15 12 48 20 74 8 26 14 52 14 57 0 15 -27 14 -36 -1z"/>
<path d="M4086 4471 c-19 -84 -19 -81 -3 -81 13 0 31 36 41 85 4 17 9 38 12
48 4 12 0 17 -15 17 -16 0 -22 -12 -35 -69z"/>
<path d="M4143 4503 c-23 -77 -27 -113 -10 -113 10 0 21 19 32 58 9 31 18 65
21 75 4 12 0 17 -13 17 -12 0 -22 -12 -30 -37z"/>
<path d="M4301 4518 c-11 -27 -41 -124 -41 -132 0 -3 9 -6 20 -6 14 0 22 10
30 43 5 23 15 56 20 73 13 40 13 44 -5 44 -9 0 -19 -10 -24 -22z"/>
<path d="M4341 4498 c-5 -24 -14 -60 -19 -80 -9 -34 -8 -38 9 -38 12 0 19 7
19 19 0 11 4 22 9 25 4 3 11 23 15 45 3 22 9 46 12 55 4 11 0 16 -14 16 -16 0
-23 -10 -31 -42z"/>
<path d="M4196 4518 c-2 -7 -9 -31 -14 -53 -6 -22 -14 -50 -17 -62 -6 -19 -3
-23 13 -23 21 0 22 2 45 95 3 11 8 28 12 38 5 13 2 17 -14 17 -12 0 -23 -6
-25 -12z"/>
<path d="M4233 4458 c-16 -61 -17 -74 -6 -76 19 -5 18 -7 41 76 19 68 19 72 3
72 -14 0 -23 -17 -38 -72z"/>
<path d="M6657 4396 c-4 -10 -5 -21 -2 -24 9 -9 17 6 13 25 -3 17 -4 17 -11
-1z"/>
<path d="M1527 2046 c-133 -36 -204 -183 -146 -303 26 -54 72 -93 147 -123
188 -76 222 -104 192 -161 -12 -21 -70 -49 -103 -49 -22 0 -108 29 -117 40
-26 29 -77 60 -99 60 -68 0 -96 -86 -43 -136 39 -37 122 -90 156 -98 16 -4 65
-7 109 -7 86 0 136 18 190 69 66 62 85 158 48 244 -26 61 -105 125 -175 142
-16 4 -57 20 -92 36 -70 32 -91 61 -74 104 22 59 171 56 220 -4 36 -44 80 -42
116 5 27 35 27 36 10 73 -43 94 -202 145 -339 108z"/>
<path d="M8008 2046 c-108 -29 -168 -105 -168 -211 0 -62 18 -111 55 -147 37
-36 46 -42 110 -67 173 -69 197 -86 193 -138 -3 -32 -8 -41 -38 -55 -19 -9
-47 -17 -61 -18 -44 0 -109 28 -150 65 -65 59 -139 37 -139 -42 0 -40 40 -84
120 -131 42 -25 53 -27 160 -27 107 0 118 2 155 26 103 68 137 163 98 269 -29
78 -76 114 -219 168 -112 43 -145 73 -128 119 7 20 21 32 49 41 59 20 119 8
164 -34 42 -38 75 -43 107 -16 49 39 50 69 4 126 -56 70 -197 103 -312 72z"/>
<path d="M10246 2048 c-57 -11 -141 -62 -179 -109 -15 -19 -31 -39 -36 -45 -5
-6 -12 -21 -16 -35 -4 -13 -11 -29 -16 -35 -20 -25 -32 -154 -21 -232 19 -137
88 -233 207 -293 53 -26 72 -30 146 -30 100 0 128 5 189 38 154 84 232 278
185 460 -25 96 -51 139 -130 215 -64 63 -202 91 -329 66z m202 -162 c37 -19
76 -64 98 -110 26 -57 24 -178 -4 -232 -29 -56 -77 -100 -130 -119 -58 -19
-81 -19 -143 1 -131 43 -187 220 -115 367 28 58 69 93 130 108 41 11 131 2
164 -15z"/>
<path d="M2361 2024 c-11 -15 -21 -31 -21 -36 0 -6 -7 -24 -14 -41 -8 -18 -31
-72 -51 -122 -20 -49 -43 -104 -51 -122 -8 -17 -14 -34 -14 -38 0 -5 -42 -110
-81 -200 -49 -115 -51 -144 -12 -175 20 -16 36 -20 57 -16 36 7 48 23 82 111
15 39 32 76 37 83 7 8 45 12 127 12 l117 0 32 -75 c17 -41 31 -78 31 -83 0 -5
9 -17 20 -27 29 -26 85 -25 110 3 30 32 26 64 -20 167 -29 67 -45 104 -95 230
-31 77 -62 154 -69 170 -7 17 -20 45 -27 64 -42 104 -52 116 -95 119 -35 3
-45 -1 -63 -24z m88 -322 c12 -29 21 -57 21 -62 0 -6 -25 -10 -56 -10 -53 0
-55 1 -48 23 16 53 48 117 55 110 4 -5 17 -32 28 -61z"/>
<path d="M3032 2034 l-22 -15 0 -352 c1 -382 1 -382 56 -393 21 -4 37 0 57 16
l27 21 0 221 0 222 34 -50 c19 -27 41 -56 49 -64 8 -8 31 -40 52 -70 21 -30
59 -83 84 -117 25 -34 53 -72 61 -84 31 -46 88 -99 107 -99 11 0 32 9 47 21
l26 20 0 354 0 354 -22 15 c-31 22 -74 20 -98 -4 -19 -19 -20 -33 -20 -237 l0
-218 -22 25 c-13 14 -36 45 -53 70 -16 25 -38 54 -48 65 -11 11 -37 47 -60 80
-43 64 -136 188 -162 218 -19 21 -63 22 -93 1z"/>
<path d="M3951 2025 c-20 -27 -21 -35 -21 -357 0 -294 2 -333 17 -359 23 -38
49 -42 241 -37 145 4 161 6 207 30 85 44 124 88 161 183 15 40 19 75 19 181 0
81 -5 140 -12 155 -6 13 -19 41 -28 61 -22 48 -86 113 -139 140 -37 19 -62 22
-232 26 l-191 4 -22 -27z m356 -134 c31 -9 49 -23 86 -67 9 -12 24 -53 31 -93
24 -124 -8 -235 -82 -283 -22 -15 -49 -18 -144 -18 l-118 0 0 235 0 235 98 0
c53 0 112 -4 129 -9z"/>
<path d="M4882 2034 c-22 -15 -22 -18 -22 -282 l0 -267 28 -55 c38 -74 127
-146 191 -156 54 -9 97 -8 156 0 77 12 187 121 208 206 3 14 7 139 8 279 2
253 2 254 -21 273 -29 24 -75 23 -100 -2 -19 -19 -20 -33 -20 -250 0 -283 -7
-307 -99 -353 -42 -21 -73 -22 -112 -1 -89 46 -99 81 -99 365 0 224 0 228 -22
243 -12 9 -34 16 -48 16 -14 0 -36 -7 -48 -16z"/>
<path d="M6289 2029 l-24 -21 0 -337 c0 -364 3 -383 51 -395 37 -10 69 3 87
34 14 22 17 54 17 159 l0 131 129 0 c122 0 129 1 155 25 31 29 33 63 5 99 -20
26 -22 26 -155 26 l-134 0 0 75 0 75 153 0 c134 1 155 3 175 19 30 26 31 86 0
112 -19 17 -40 19 -228 19 -195 0 -208 -1 -231 -21z"/>
<path d="M7228 2033 c-9 -10 -19 -29 -23 -43 -7 -23 -32 -85 -55 -135 -5 -11
-35 -83 -65 -160 -31 -77 -60 -149 -65 -160 -51 -114 -70 -166 -70 -195 0 -45
55 -79 102 -61 26 10 43 39 92 164 l15 37 121 0 121 0 15 -37 c21 -53 43 -104
57 -132 32 -64 137 -39 137 33 0 25 -43 141 -100 271 -5 11 -27 67 -50 125
-22 58 -45 114 -50 125 -5 11 -19 45 -31 75 -37 90 -55 110 -98 110 -24 0 -44
-7 -53 -17z m85 -330 l25 -68 -29 -3 c-16 -2 -42 -2 -58 0 l-29 3 25 68 c14
37 29 67 33 67 4 0 19 -30 33 -67z"/>
<path d="M8650 2028 c-19 -21 -20 -33 -20 -369 l0 -348 27 -21 c33 -26 76 -21
103 12 17 20 19 41 20 161 l0 137 150 0 150 0 0 -137 c1 -120 3 -141 20 -161
28 -34 71 -39 104 -10 l27 23 -1 349 c0 343 -1 349 -22 367 -30 26 -80 24
-106 -4 -20 -21 -22 -34 -22 -150 l0 -127 -150 0 -150 0 0 129 c0 128 0 130
-26 150 -35 27 -78 27 -104 -1z"/>
<path d="M9588 2043 c-35 -9 -39 -49 -36 -397 l3 -338 25 -20 c30 -24 77 -18
103 13 15 19 17 52 17 363 l0 343 -23 21 c-22 21 -50 25 -89 15z"/>
<path d="M11012 2034 l-22 -15 0 -353 c0 -397 -1 -391 69 -391 68 0 70 8 71
260 0 210 1 218 17 195 10 -14 21 -29 25 -35 5 -5 16 -20 26 -32 9 -11 24 -31
32 -43 8 -12 38 -53 65 -90 28 -38 57 -79 65 -91 8 -12 20 -27 25 -33 6 -6 28
-35 49 -64 21 -29 47 -57 58 -63 29 -16 72 -2 91 30 15 26 17 67 17 359 l0
329 -25 27 c-30 33 -76 35 -105 4 -19 -21 -20 -34 -20 -242 l0 -220 -53 75
c-29 42 -65 91 -80 110 -25 32 -112 149 -147 199 -14 21 -24 34 -62 79 -21 25
-64 27 -96 5z"/>
</g>
</svg>
